DataRate=2000.000000
DataType=double
version=3
OpenSimVersion=4.3-2021-08-27-4bc7ad9
endheader
time	f1_1	f1_2	f1_3	p1_1	p1_2	p1_3	m1_1	m1_2	m1_3	f2_1	f2_2	f2_3	p2_1	p2_2	p2_3	m2_1	m2_2	m2_3	f3_1	f3_2	f3_3	p3_1	p3_2	p3_3	m3_1	m3_2	m3_3	f4_1	f4_2	f4_3	p4_1	p4_2	p4_3	m4_1	m4_2	m4_3
3.265	-0	0	0	-300	2252	0	0	0	0	-10.58160972595215	-14.12322235107422	323.5441284179688	-300	1351	0	-81869.328125	14072.44140625	-17044.05078125	10.89646191303344	24.13363289806185	379.5867004394531	-300	450.0000000000005	0	103414.0539415244	34131.86554143588	5147.59326171875	-0	0	0	305	450.0000000000006	0	0	0	0
3.2655	-0	0	0	-300	2252	0	0	0	0	-10.78033638000488	-14.15143871307373	324.8380737304688	-300	1351	0	-81897.34375	14155.2939453125	-17050.78125	11.03003640009148	24.07510209348609	379.4689636230469	-300	450.0000000000005	0	103349.8820658429	34163.04913378336	5159.814453125	-0	0	0	305	450.0000000000006	0	0	0	0
3.266	-0	0	0	-300	2252	0	0	0	0	-10.60990905761719	-13.86378192901611	324.8208923339844	-300	1351	0	-81921.90625	14226.923828125	-17007.951171875	11.22938103317108	24.1634161542394	379.3826293945312	-300	450.0000000000005	0	103426.624254112	34127.86163546061	5107.70751953125	-0	0	0	305	450.0000000000006	0	0	0	0
3.2665	-0	0	0	-300	2252	0	0	0	0	-10.71136569976807	-13.67138385772705	323.4325561523438	-300	1351	0	-81770.796875	14220.6015625	-16956	11.16263718391543	24.09696412641348	379.1199645996094	-300	450.0000000000005	0	103609.7101893018	34233.56085821208	5036.080078125	-0	0	0	305	450.0000000000006	0	0	0	0
3.267	-0	0	0	-300	2252	0	0	0	0	-10.71943950653076	-13.91044330596924	325.1103210449219	-300	1351	0	-81681.0390625	13944.0908203125	-17052.56640625	11.03703160345764	23.97191071790656	379.4413146972656	-300	450.0000000000005	0	103580.811753036	34177.09210758049	5063.443359375	-0	0	0	305	450.0000000000006	0	0	0	0
3.2675	-0	0	0	-300	2252	0	0	0	0	-10.8350305557251	-14.35608291625977	325.2546081542969	-300	1351	0	-81541.625	13863.8017578125	-17120.734375	11.00013680372673	24.03835129937559	378.6533508300781	-300	450.0000000000005	0	103529.0148815874	34014.59991894843	5048.51904296875	-0	0	0	305	450.0000000000006	0	0	0	0
3.268	-0	0	0	-300	2252	0	0	0	0	-10.64446640014648	-14.09074687957764	324.5723876953125	-300	1351	0	-81380.34375	13934.8037109375	-16994.876953125	11.10374970190128	24.11182046362742	379.6171875	-300	450.0000000000005	0	103418.1086320328	33994.21710402449	4976.802734375	-0	0	0	305	450.0000000000006	0	0	0	0
3.2685	-0	0	0	-300	2252	0	0	0	0	-10.65655136108398	-13.65116882324219	323.2723388671875	-300	1351	0	-81493.671875	14031.5458984375	-16987.18359375	11.38475651720487	24.00867677775242	379.7012023925781	-300	450.0000000000005	0	103330.0773811016	34036.82647710051	5073.1455078125	-0	0	0	305	450.0000000000006	0	0	0	0
3.269	-0	0	0	-300	2252	0	0	0	0	-10.52085590362549	-13.60249519348145	323.753173828125	-300	1351	0	-81388.3984375	13996.4951171875	-16996.447265625	11.37702508225515	23.88361192772993	378.6256713867188	-300	450.0000000000005	0	103515.1086320421	33993.7952311445	5090.24267578125	-0	0	0	305	450.0000000000006	0	0	0	0
3.2695	-0	0	0	-300	2252	0	0	0	0	-10.56728267669678	-13.85561847686768	323.4892883300781	-300	1351	0	-81272.8125	14026.1240234375	-16991.986328125	11.26626916715568	23.6406233388835	378.8879699707031	-300	450.0000000000005	0	103600.6945704679	33951.43195176504	5040.8798828125	-0	0	0	305	450.0000000000006	0	0	0	0
3.27	-0	0	0	-300	2252	0	0	0	0	-10.54113578796387	-14.21211051940918	323.0230712890625	-300	1351	0	-81334.8984375	13889.994140625	-17021.513671875	11.31804701115696	23.44201875627491	377.3445739746094	-300	450.0000000000005	0	103522.6008197798	33982.91632505824	5092.73486328125	-0	0	0	305	450.0000000000006	0	0	0	0
3.2705	-0	0	0	-300	2252	0	0	0	0	-10.60173320770264	-13.96743011474609	324.0259094238281	-300	1351	0	-81305.5625	13562.322265625	-17050.5703125	11.09612794882766	23.55987763814346	377.2588806152344	-300	450.0000000000005	0	103385.9680042557	34121.28350957204	5078.03662109375	-0	0	0	305	450.0000000000006	0	0	0	0
3.271	-0	0	0	-300	2252	0	0	0	0	-10.81464958190918	-13.99930572509766	323.056640625	-300	1351	0	-81198.421875	13655.4931640625	-16918.537109375	11.01495213777261	23.87635636561735	378.5386962890625	-300	450.0000000000005	0	103668.6164415601	34130.23273449952	5006.5	-0	0	0	305	450.0000000000006	0	0	0	0
3.2715	-0	0	0	-300	2252	0	0	0	0	-10.88368225097656	-14.00782108306885	321.8836059570312	-300	1351	0	-81022.4296875	13869.3154296875	-16863.900390625	11.14060350312442	23.61126733332937	379.2369384765625	-300	450.0000000000005	0	103478.2492552752	34074.63898033891	5068.166015625	-0	0	0	305	450.0000000000006	0	0	0	0
3.272	-0	0	0	-300	2252	0	0	0	0	-10.61028575897217	-13.90434265136719	321.7469482421875	-300	1351	0	-80979.375	13754.6591796875	-16993.921875	11.17755839044425	23.26540399185189	378.1020812988281	-300	450.0000000000005	0	103309.8273788302	34140.75225790794	5095.22998046875	-0	0	0	305	450.0000000000006	0	0	0	0
3.2725	-0	0	0	-300	2252	0	0	0	0	-10.7109899520874	-13.90434265136719	323.0456237792969	-300	1351	0	-81005.8046875	13740.505859375	-16990.177734375	11.28104158344059	23.589205034763	378.1019897460938	-300	450.0000000000005	0	103476.2726903956	34183.51398029571	4984.01123046875	-0	0	0	305	450.0000000000006	0	0	0	0
3.273	-0	0	0	-300	2252	0	0	0	0	-10.61035823822021	-14.06818962097168	322.3511047363281	-300	1351	0	-81015.21875	13492.193359375	-16873.328125	11.35497995093762	23.69233346960652	379.2367553710938	-300	450.0000000000005	0	103394.7805029915	34179.12725976465	4956.77294921875	-0	0	0	305	450.0000000000006	0	0	0	0
3.2735	-0	0	0	-300	2252	0	0	0	0	-10.43762969970703	-14.44477558135986	320.9609680175781	-300	1351	0	-81036.9375	13409.0439453125	-16792.458984375	11.30325266630854	23.22139001754825	378.7134704589844	-300	450.0000000000005	0	103285.8351911674	34148.20147613357	4946.8251953125	-0	0	0	305	450.0000000000006	0	0	0	0
3.274	-0	0	0	-300	2252	0	0	0	0	-10.38297939300537	-14.45358276367188	320.9037475585938	-300	1351	0	-81078.71875	13654.6015625	-16859.3671875	11.26626917632461	23.22110200709639	378.3347778320312	-300	450.0000000000005	0	103401.0148813744	34024.3421036509	4991.29541015625	-0	0	0	305	450.0000000000006	0	0	0	0
3.2745	-0	0	0	-300	2252	0	0	0	0	-10.23913288116455	-14.40458869934082	320.3915710449219	-300	1351	0	-81060.5625	13688.5048828125	-16951.7578125	11.31798120730756	23.45673204362699	379.0909729003906	-300	450.0000000000005	0	103458.686756549	34016.35772991136	4902.4580078125	-0	0	0	305	450.0000000000006	0	0	0	0
3.275	-0	0	0	-300	2252	0	0	0	0	-10.3885669708252	-14.27534580230713	321.2789611816406	-300	1351	0	-80903.1640625	13542.7451171875	-16938.525390625	11.35497995303128	23.59653879187214	378.1031188964844	-300	450.0000000000005	0	103361.1945665455	34130.9006965306	4855.369140625	-0	0	0	305	450.0000000000006	0	0	0	0
3.2755	-0	0	0	-300	2252	0	0	0	0	-10.69075679779053	-14.4992733001709	321.8837890625	-300	1351	0	-80920.671875	13599.6767578125	-16934.0390625	11.51010653095261	23.30983759286996	376.6766967773438	-300	450.0000000000005	0	103327.7336296467	34103.39678954929	4892.30224609375	-0	0	0	305	450.0000000000006	0	0	0	0
3.276	-0	0	0	-300	2252	0	0	0	0	-10.63057613372803	-14.32443809509277	323.0446472167969	-300	1351	0	-80839.0859375	13519.4521484375	-16819.861328125	11.51770922823909	23.05196024318261	378.2168579101562	-300	450.0000000000005	0	103380.6008182252	34054.04913445473	4892.22998046875	-0	0	0	305	450.0000000000006	0	0	0	0
3.2765	-0	0	0	-300	2252	0	0	0	0	-10.30834197998047	-14.02802848815918	322.5684814453125	-300	1351	0	-80949.65625	13373.66015625	-16811.8125	11.34030196015502	23.20636392582869	378.1035766601562	-300	450.0000000000005	0	103185.7648805102	34063.88506769646	4892.39697265625	-0	0	0	305	450.0000000000006	0	0	0	0
3.277	-0	0	0	-300	2252	0	0	0	0	-10.60693550109863	-14.211745262146	321.9631652832031	-300	1351	0	-81173.546875	13296.732421875	-16893.189453125	11.47301718633245	23.16254450123904	377.8974609375	-300	450.0000000000005	0	103133.3039446507	33988.82256654989	4926.857421875	-0	0	0	305	450.0000000000006	0	0	0	0
3.2775	-0	0	0	-300	2252	0	0	0	0	-10.88368225097656	-14.40455532073975	322.5325012207031	-300	1351	0	-80948.328125	13374.9228515625	-16844.498046875	11.56943270396552	23.25777269853669	378.6837768554688	-300	450.0000000000005	0	103298.7023774078	34205.83428891479	4951.57373046875	-0	0	0	305	450.0000000000006	0	0	0	0
3.278	-0	0	0	-300	2252	0	0	0	0	-10.77447700500488	-14.54823207855225	321.0771179199219	-300	1351	0	-80773.2734375	13582.3271484375	-16888.712890625	11.53240152928509	23.30235506467071	378.8295288085938	-300	450.0000000000005	0	103356.389874599	34334.34991517559	4917.05517578125	-0	0	0	305	450.0000000000006	0	0	0	0
3.2785	-0	0	0	-300	2252	0	0	0	0	-10.4868803024292	-14.61738586425781	319.764892578125	-300	1351	0	-80983.3203125	13657.8994140625	-16981.201171875	11.63573214532804	23.12572695413611	378.6261596679688	-300	450.0000000000005	0	103269.6008162461	34144.59991327875	4926.71875	-0	0	0	305	450.0000000000006	0	0	0	0
3.279	-0	0	0	-300	2252	0	0	0	0	-10.62135887145996	-14.67192459106445	321.7889709472656	-300	1351	0	-81117.875	13520.0458984375	-17003.97265625	11.5031904870739	23.20625521051666	378.6836853027344	-300	450.0000000000005	0	103411.1789387681	34257.97882262304	4951.60888671875	-0	0	0	305	450.0000000000006	0	0	0	0
3.2795	-0	0	0	-300	2252	0	0	0	0	-10.90363311767578	-14.48838901519775	322.9435729980469	-300	1351	0	-80818.6171875	13444.2509765625	-16968.1171875	11.40663096461467	23.1112272848223	378.4229431152344	-300	450.0000000000005	0	103658.9211237041	34375.29523428762	4951.65234375	-0	0	0	305	450.0000000000006	0	0	0	0
3.28	-0	0	0	-300	2252	0	0	0	0	-10.75459861755371	-14.24094581604004	322.3743591308594	-300	1351	0	-80827.0078125	13435.986328125	-16945.177734375	11.3920473835651	22.80938745601235	377.7247009277344	-300	450.0000000000005	0	103647.6086242138	34351.97492154038	4899.77880859375	-0	0	0	305	450.0000000000006	0	0	0	0
3.2805	-0	0	0	-300	2252	0	0	0	0	-10.67061710357666	-14.33528518676758	321.6680603027344	-300	1351	0	-81087.015625	13467.6513671875	-16891.5703125	11.61316154236801	22.80149294485375	378.8555297851562	-300	450.0000000000005	0	103515.9445612471	34373.32648116277	4879.70263671875	-0	0	0	305	450.0000000000006	0	0	0	0
